<svg width="21" height="20" viewBox="0 0 21 20" fill="none" xmlns="http://www.w3.org/2000/svg">
<path fill-rule="evenodd" clip-rule="evenodd" d="M9.43994 7.32999e-08H11.5601C12.967 -4.45578e-06 14.07 -7.99846e-06 14.9565 0.068788C15.8592 0.138841 16.6049 0.283852 17.2799 0.610525C18.3896 1.14756 19.2918 2.00447 19.8572 3.05846C20.2012 3.69959 20.3538 4.40792 20.4276 5.26533C20.5 6.10735 20.5 7.155 20.5 8.49128V11.1768C20.5 11.4267 20.5 11.5788 20.4934 11.7114C20.3496 14.5968 17.9193 16.9051 14.8814 17.0417C14.7418 17.048 14.5655 17.048 14.2732 17.048H14.244L14.1668 17.0481C13.2773 17.0535 12.4109 17.3172 11.6839 17.8038L11.6335 17.8379L8.9558 19.6545C7.41272 20.7014 5.38501 19.1896 6.08927 17.5172C6.18393 17.2925 6.00965 17.048 5.75478 17.048H5.1376C2.57632 17.048 0.5 15.0759 0.5 12.6431L0.5 8.4913C0.499995 7.15501 0.499992 6.10735 0.572422 5.26533C0.646177 4.40792 0.79885 3.69959 1.14278 3.05846C1.70819 2.00447 2.61038 1.14756 3.72006 0.610525C4.39506 0.283852 5.14082 0.138841 6.04352 0.0687881C6.93004 -7.99846e-06 8.03305 -4.45578e-06 9.43994 7.32999e-08ZM6.1688 1.52519C5.36124 1.58786 4.84048 1.70829 4.4185 1.91251C3.59831 2.30945 2.93147 2.94282 2.51356 3.72186C2.29855 4.12266 2.17176 4.61728 2.10577 5.38432C2.03906 6.15989 2.03846 7.14797 2.03846 8.52399V12.6431C2.03846 14.2688 3.42599 15.5867 5.1376 15.5867H5.75478C7.09806 15.5867 8.01658 16.8753 7.5177 18.0599C7.38407 18.3772 7.76881 18.6641 8.06159 18.4655L10.7393 16.6488L10.7977 16.6093C11.7814 15.951 12.9536 15.5942 14.1569 15.5868L14.244 15.5867C14.5739 15.5867 14.7105 15.5865 14.8087 15.5821C17.0541 15.4811 18.8504 13.775 18.9567 11.6423C18.9613 11.5488 18.9615 11.4339 18.9615 11.1531V8.52399C18.9615 7.14797 18.9609 6.15989 18.8942 5.38432C18.8282 4.61728 18.7014 4.12266 18.4864 3.72186C18.0685 2.94282 17.4017 2.30945 16.5815 1.91251C16.1595 1.70829 15.6388 1.58786 14.8312 1.52519C14.0146 1.46182 12.9744 1.46126 11.5256 1.46126H9.47436C8.02563 1.46126 6.98535 1.46182 6.1688 1.52519Z" fill="#5E5F60"/>
<path d="M7.42308 8.52399C7.42308 9.06201 6.96388 9.49816 6.39744 9.49816C5.83099 9.49816 5.3718 9.06201 5.3718 8.52399C5.3718 7.98597 5.83099 7.54982 6.39744 7.54982C6.96388 7.54982 7.42308 7.98597 7.42308 8.52399Z" fill="#5E5F60"/>
<path d="M11.5256 8.52399C11.5256 9.06201 11.0664 9.49816 10.5 9.49816C9.93355 9.49816 9.47436 9.06201 9.47436 8.52399C9.47436 7.98597 9.93355 7.54982 10.5 7.54982C11.0664 7.54982 11.5256 7.98597 11.5256 8.52399Z" fill="#5E5F60"/>
<path d="M15.6282 8.52399C15.6282 9.06201 15.169 9.49816 14.6026 9.49816C14.0361 9.49816 13.5769 9.06201 13.5769 8.52399C13.5769 7.98597 14.0361 7.54982 14.6026 7.54982C15.169 7.54982 15.6282 7.98597 15.6282 8.52399Z" fill="#5E5F60"/>
</svg>
