<svg width="22" height="22" viewBox="0 0 22 22" fill="none" xmlns="http://www.w3.org/2000/svg">
<path d="M15 8H14.25C14.25 9.79493 12.7949 11.25 11 11.25V12V12.75C13.6234 12.75 15.75 10.6234 15.75 8H15ZM11 12V11.25C9.20507 11.25 7.75 9.79493 7.75 8H7H6.25C6.25 10.6234 8.37665 12.75 11 12.75V12ZM7 8H7.75C7.75 6.20507 9.20507 4.75 11 4.75V4V3.25C8.37665 3.25 6.25 5.37665 6.25 8H7ZM11 4V4.75C12.7949 4.75 14.25 6.20507 14.25 8H15H15.75C15.75 5.37665 13.6234 3.25 11 3.25V4ZM8 15V15.75H14V15V14.25H8V15ZM1 11H1.75C1.75 5.89137 5.89137 1.75 11 1.75V1V0.25C5.06294 0.25 0.25 5.06294 0.25 11H1ZM11 1V1.75C16.1086 1.75 20.25 5.89137 20.25 11H21H21.75C21.75 5.06294 16.9371 0.25 11 0.25V1ZM21 11H20.25C20.25 13.6233 19.159 15.9905 17.4039 17.6748L17.9232 18.2159L18.4425 18.7571C20.4801 16.8016 21.75 14.0485 21.75 11H21ZM17.9232 18.2159L17.4039 17.6748C15.7412 19.2705 13.4858 20.25 11 20.25V21V21.75C13.8882 21.75 16.5117 20.61 18.4425 18.7571L17.9232 18.2159ZM14 15V15.75C15.576 15.75 16.8915 16.8726 17.1876 18.3621L17.9232 18.2159L18.6588 18.0697C18.226 15.8918 16.3055 14.25 14 14.25V15ZM11 21V20.25C8.51425 20.25 6.25884 19.2705 4.59612 17.6748L4.07681 18.2159L3.55751 18.7571C5.48833 20.61 8.11182 21.75 11 21.75V21ZM4.07681 18.2159L4.59612 17.6748C2.84103 15.9905 1.75 13.6233 1.75 11H1H0.25C0.25 14.0485 1.51989 16.8016 3.55751 18.7571L4.07681 18.2159ZM8 15V14.25C5.69445 14.25 3.77403 15.8918 3.3412 18.0697L4.07681 18.2159L4.81243 18.3621C5.10846 16.8726 6.42396 15.75 8 15.75V15Z" fill="#5E5F60"/>
</svg>
